<?xml version="1.0" encoding="iso-8859-1"?>
<!-- Generator: Adobe Illustrator 19.0.0, SVG Export Plug-In . SVG Version: 6.00 Build 0)  -->
<svg version="1.1" id="Layer_1" xmlns="http://www.w3.org/2000/svg" xmlns:xlink="http://www.w3.org/1999/xlink" x="0px" y="0px"
	 viewBox="0 0 481.129 481.129" style="enable-background:new 0 0 481.129 481.129;" xml:space="preserve">
<g id="XMLID_1790_">
	<g id="XMLID_1247_">
		<circle style="fill:#9ED6F1;" cx="429.703" cy="55.134" r="44.503"/>
	</g>
	<g id="XMLID_985_">
		<circle style="fill:#3AAA35;" cx="214.604" cy="262.816" r="207.682"/>
	</g>
	<g id="XMLID_713_">
		<polygon style="fill:#5EBAE7;" points="21.757,247.982 6.923,270.565 29.174,359.24 81.095,381.491 170.101,374.074 
			244.273,336.988 318.445,322.154 370.366,329.572 407.452,351.823 422.286,270.233 422.286,262.816 407.452,262.816 
			362.948,285.068 273.942,285.068 214.604,255.399 147.85,233.147 95.929,225.73 		"/>
	</g>
	<g id="XMLID_710_">
		<polygon style="fill:#89CC86;" points="29.174,247.982 6.923,248.427 29.174,158.975 73.677,129.307 133.015,114.472 
			222.021,129.307 296.194,166.393 377.783,173.81 392.617,166.393 422.286,233.147 422.286,262.816 385.2,270.233 311.028,285.068 
			222.021,255.399 170.101,233.147 110.763,225.73 		"/>
	</g>
	<g id="XMLID_711_">
		<path style="fill:#9ED6F1;" d="M405.646,344.405c-31.704,74.141-105.306,126.093-191.042,126.093
			c-70.679,0-133.112-35.307-170.623-89.246l7.445-7.178l96.424,7.417l59.338-22.252l66.755-29.669l59.338-7.417L405.646,344.405z"
			/>
	</g>
	<path style="fill:#1D1D1B;" d="M366.353,111.068c-40.533-40.533-94.425-62.856-151.748-62.856S103.39,70.535,62.857,111.068
		S0,205.493,0,262.816s22.323,111.215,62.856,151.748s94.425,62.856,151.748,62.856s111.215-22.323,151.748-62.856
		s62.856-94.425,62.856-151.748C429.209,205.493,406.886,151.602,366.353,111.068z M48.019,151.218
		c0.233-0.166,23.791-16.658,60.163-25.002c48.428-11.11,95.518-3.296,139.961,23.229c38.856,23.191,75.915,30.474,107.145,30.473
		c14.894-0.001,28.458-1.661,40.259-4.039c11.186,23.187,18.036,48.841,19.509,75.901c-7.608,4.571-27.941,15.588-56.308,21.795
		c-48.643,10.643-95.947,2.529-140.596-24.12c-59.539-35.535-114.835-33.046-150.739-24.699
		c-23.469,5.456-41.722,13.921-52.74,19.939c3.096-34.434,14.912-66.392,33.234-93.633L48.019,151.218z M214.605,62.058
		c74.419,0,139.51,40.703,174.182,101.015c-33.903,6.077-81.992,5.254-133.548-25.517c-59.538-35.535-114.834-33.045-150.739-24.7
		c-13.553,3.15-25.363,7.306-35.052,11.414C106.029,85.959,157.577,62.058,214.605,62.058z M13.866,261.207
		c7.371-4.603,28.215-16.436,57.23-23.092c48.43-11.11,95.521-3.295,139.961,23.229c38.971,23.261,76.119,30.469,107.201,30.468
		c16.374-0.001,31.068-2.002,43.45-4.711c24.08-5.269,42.676-13.712,53.595-19.547c-0.552,23.705-5.239,46.402-13.356,67.408
		c-17.228-7.863-42.126-16.389-72.052-18.492c-41.188-2.901-81.172,7.038-118.839,29.521
		c-31.773,18.964-65.355,28.578-99.816,28.578c-0.036,0-0.072,0-0.108,0c-30.176-0.017-55.569-7.539-71.822-13.996
		c-16.207-28.947-25.464-62.288-25.464-97.756C13.846,262.279,13.862,261.744,13.866,261.207z M214.605,463.576
		c-67.277,0-126.927-33.267-163.374-84.213c16.376,4.932,36.817,8.956,60.013,8.956c31.691-0.001,68.483-7.505,106.909-30.439
		c35.191-21.004,72.457-30.293,110.772-27.598c28.112,1.976,51.48,10.032,67.583,17.417
		C364.468,416.086,294.983,463.576,214.605,463.576z"/>
	<g id="XMLID_970_">
		<rect x="192.353" y="77.387" style="fill:#FFFFFF;" width="66.755" height="14.834"/>
	</g>
	<g id="XMLID_971_">
		<rect x="303.61" y="210.896" style="fill:#FFFFFF;" width="89.007" height="14.834"/>
	</g>
	<g id="XMLID_975_">
		<rect x="266.524" y="210.896" style="fill:#FFFFFF;" width="22.252" height="14.834"/>
	</g>
	<g id="XMLID_982_">
		<rect x="44.009" y="299.902" style="fill:#FFFFFF;" width="163.179" height="14.834"/>
	</g>
	<g id="XMLID_983_">
		<rect x="222.021" y="396.326" style="fill:#FFFFFF;" width="111.258" height="14.834"/>
	</g>
	<g id="XMLID_984_">
		<rect x="170.101" y="433.412" style="fill:#FFFFFF;" width="59.338" height="14.834"/>
	</g>
	<g id="XMLID_969_">
		<path style="fill:#1D1D1B;" d="M429.703,106.561c-28.356,0-51.426-23.069-51.426-51.426c0-28.356,23.069-51.427,51.426-51.427
			c28.356,0,51.426,23.07,51.426,51.427C481.129,83.491,458.06,106.561,429.703,106.561z M429.703,17.554
			c-20.722,0-37.58,16.858-37.58,37.581c0,20.722,16.858,37.58,37.58,37.58c20.722,0,37.58-16.858,37.58-37.58
			C467.283,34.412,450.425,17.554,429.703,17.554z"/>
	</g>
	<g id="XMLID_1253_">
		<circle style="fill:#5EBAE7;" cx="414.869" cy="47.717" r="22.252"/>
	</g>
</g>
<g>
</g>
<g>
</g>
<g>
</g>
<g>
</g>
<g>
</g>
<g>
</g>
<g>
</g>
<g>
</g>
<g>
</g>
<g>
</g>
<g>
</g>
<g>
</g>
<g>
</g>
<g>
</g>
<g>
</g>
</svg>
